<?xml version="1.0" encoding="UTF-8"?>
<svg id="Layer_1" xmlns="http://www.w3.org/2000/svg" version="1.1" viewBox="0 0 781.7 784.8">
  <g id="CoQm6i.tif">
    <g>
      <!-- Main compass shape -->
      <path d="M747.4,0c8.4,4,18.9,4.4,24.5,13,14.2,21.9,7.8,43-2.3,66.1-75.8,137.8-134.7,290.3-211.1,427-19.7,35.3-33.5,42.9-68.4,61.2-137,71.9-279.6,133.9-416.7,205.8C45.4,788,11,787.9,0,753.6v-21.8l6.5-17.7,223.5-450c13-17.7,25.8-27.8,44.9-38.4C413.8,148.7,566.3,87.4,706.2,11.1l31.8-11.1h9.4ZM453.4,325.2c-95.8-75.6-201.9,43.1-133.6,127.6,33.8,41.8,102.9,41.1,138.8,1.5,29.3-32.4,31.3-73.6,10.5-109.7-6.8-11.9-4.9-10.9-15.7-19.4Z"/>
    </g>
  </g>
</svg>
