<?xml version="1.0" encoding="UTF-8"?>
<svg id="Layer_1" data-name="Layer 1" xmlns="http://www.w3.org/2000/svg" width="1024" height="1024" viewBox="0 0 1024 1024">
  <defs>
    <style>
      .cls-1 {
        fill: #1d1c1f;
      }

      .cls-2 {
        fill: #4e3b2d;
      }

      .cls-3 {
        fill: #83795d;
      }

      .cls-4 {
        fill: #4c5a41;
      }
    </style>
  </defs>
  <path id="greens" class="cls-4" d="M0-9.1913V1023.99994h1024V-9.1913H0Z"/>
  <path id="browns" class="cls-2" d="M681.29294-9.1913l-59.39394,54.49489-150.62625,44.25734-234.02022-16.83155L0,104.22675v166.10391l260.52527,47.3862L0,352.9444v121.81598l88.56566,1.92112c20.68688,25.55584,32.9697,34.903,47.19192,32.4095s37.49495,19.94852,56.24242,20.57188,42.66666-15.5813,68.52525-12.46438c25.85859,3.11685,42.02019,13.71286,73.0505,13.71286s69.81819-11.84468,92.44444-20.57191c22.62625-8.72723,63.35353-14.95977,63.35353-19.3234s-14.22222-11.84295-38.78787-19.32343-44.60606-35.53562-28.44444-59.22382c16.16159-23.6882,29.09091-39.27161,76.28281-28.67427,47.19191,10.59737,101.49497,3.11856,115.07072-.62169,13.57575-3.74024,51.71719-9.35428,76.92931-8.1075,25.21213,1.24672,31.67675-9.97108,17.45456-18.07495-14.22225-8.10384,12.28281-13.08944,26.50506-9.97256,14.22219,3.11688,62.70706,15.58306,73.697,15.58306s77.57575-8.72739,109.2525-5.6105c26.11719,2.57081,75.06231,19.10975,106.66662,24.1441V-9.1913h-342.70706ZM775.04544,462.58643c-28.04419.41759-69.26769,9.96051-70.399,29.05135-1.29294,21.81809,61.41413,35.53206,51.71719,52.98652-9.697,17.45446-20.68687-13.7128-39.43438-9.97253-18.7475,3.74027-47.19194,1.86799-60.76769-16.20986s-56.24244-9.34892-65.29294-.62169c-9.0505,8.72726-12.28281,39.27401,19.39394,54.23497s90.50506,5.61123,108.60606,31.79295c18.101,26.18172,40.72725,41.13929,87.91919,61.7106,47.19194,20.57138,86.62625,19.94878,92.44444,31.79289,5.81819,11.84411,46.5455,27.4309,62.70706,27.4309,10.45206,0,37.663-.51168,62.06063,5.69712v-214.95259c-13.39219-.98243-22.24875-6.51193-34.90906-16.4086-23.91919-18.70124-45.899-28.05259-82.7475-28.05259s-93.73738-5.60887-120.24244-8.10239c-3.31312-.31168-7.04919-.43676-11.05556-.37707h.00006ZM968.24237,776.67852c-7.59594-.62336-14.70706.1521-19.23231,2.33389-9.0505,4.36363-27.1515.62683-35.55556.62683s-20.68687,24.30894-6.46463,27.42579,2.58588,24.93526-10.98987,13.09121c-13.57575-11.84411-23.27275-6.23547-28.44444-1.24848s-20.68687-1.24325-26.50506,4.36716c-5.81819,5.61035-24.56569,3.73914-21.33331,23.06374,3.23231,19.3246,8.404,33.03816,53.01006,38.02515s80.16163-8.726,91.1515-17.45326c8.11962-6.44818,34.93494-7.7751,60.12119,6.28825v-87.58724c-15.5565,2.62567-25.15781,1.62704-33.61619-2.85874-6.46463-3.42856-14.54544-5.45087-22.14144-6.07422l.00006-.00006Z"/>
  <path id="tans" class="cls-3" d="M0,247.17115c39.68776-7.30595,73.54441,12.57223,91.79798,12.57223,20.68687,0,69.81818-9.97398,83.39393-9.97398s52.36362,19.94796,75.63638,19.94796,44.60606,6.23374,102.14141,7.48048c57.53538,1.24678,90.50506-14.96097,108.60606-22.44145s68.52525-18.70121,86.62625-36.1557c18.101-17.45446,87.91919-54.23352,95.03031-38.64917,7.11112,15.58434-32.32325,36.77904-51.71719,54.23352-19.39394,17.45446-32.96969,19.32458-62.70706,20.57133-29.73738,1.24676-80.80806,21.81811-76.28281,40.51929,4.52525,18.70124,36.84847,5.61038,69.81819,4.98702,32.96969-.62336,33.61619-13.71422,40.08081-10.59737,6.46463,3.11688,0,16.8311-18.101,29.92193-18.101,13.09089-85.33334,12.4675-103.43434,6.23377-18.10103-6.23377-79.51516-1.87014-98.26263-8.72723s-53.01009,16.8311-53.01009,25.55833,40.72728,40.5193,74.98991,39.89594c34.26263-.62339,7.11113,21.1947-31.67675,17.45446-38.78794-3.74024-47.19197-23.06484-67.23237-24.31159s-49.77778-15.58433-73.69697-17.45449c-23.91919-1.87011-69.17172,3.11688-87.9192,10.59737-17.08735,6.81724-54.09616,10.0139-104.0808,13.35518v-135.01785ZM1002.02019,220.4708c-1.29294-12.4675-10.98988-18.70124-25.21213-34.28557-14.22219-15.58437-29.73738-25.55833-44.60606-11.22074-14.86869,14.33761-14.22225,29.29859-13.57575,46.75304.6465,17.45451-1.29294,32.41546-15.51512,44.25959-14.22219,11.84408-18.101,26.80508-10.34344,32.41543,7.75756,5.61038-5.81819,16.83114-1.93937,19.32463s10.34344-6.23374,23.27269-6.23374,26.50506-6.23374,43.31312-5.61038c16.80806.62339,37.49494,6.23374,44.60606,6.23374,4.72175,0,13.43869-4.11426,21.97981-6.33596v-51.81732c-14.03088-8.38315-20.97131-23.76053-21.97981-33.48267v-.00005ZM734.3735,1023.99994c20.224-7.21115,23.61663-16.73885,2.59619-28.0518-27.798-14.96103-69.17169-7.48048-71.75756-14.96103-2.58588-7.48048-22.61331,6.59782-49.77781-38.02578-17.45456-28.67522,16.80806-59.84393,35.55556-71.68805,18.7475-11.84411,48.48488-49.86995,60.12119-74.8049,11.63638-24.93495,27.1515-72.31141,49.77781-91.636,22.62625-19.3246,32.32325-44.8829-20.04044-45.50632-52.36362-.62336-88.56569,16.8311-109.899,47.37646-21.33331,30.54536-27.1515,66.07764-51.71719,76.05162-24.56569,9.97398-59.47475,11.22076-80.16163-9.35062-20.68688-20.57131-24.56566-61.09065-38.14141-97.24635s-60.12122-50.49325-124.76769-26.18166l-5.81816,71.68798-47.19194,33.66221-86.62628,104.72683c-22.62627-4.98699-41.37373-17.45446-49.13131-17.45446s-12.28283,8.72726-36.84848,5.61035c-24.56566-3.11685-52.36364-1.87007-53.65657,19.3246-1.13509,18.60652-21.7056,36.24802-56.88879,44.07755v77.76719c9.64267-8.11633,17.41576-2.37879,24.09762,34.62219h155.61438l65.94456-132.15527,53.42644,132.15527h135.69034l9.99434-29.29858,60.12122-33.03879,85.33334-5.61035-30.34506,67.94771h174.49631ZM82.74748,493.50861c35.55555,1.87014,45.89899-6.85709,79.51515-4.3636s69.81819-2.49349,79.51516-13.09086c9.69695-10.59734-5.81819-29.29858-35.55558-29.29858s-48.48484-15.58436-78.86868-11.84411c-30.38384,3.74024-48.48485,17.45446-58.18182,17.45446s-21.33334-6.2337-30.38384-.62336c-6.8913,4.27137-23.146,7.43063-38.78786,1.55843v65.29221c23.37616-10.30562,54.1065-26.59061,82.74748-25.08459ZM14.22222,659.32612c.40857-8.28338-5.91903-19.55401-14.22222-27.51073v30.97922c11.55879,9.73208,13.51111,10.94146,14.22222-3.46848ZM1024,617.96902c-8.23337-2.29901-12.86463.21188-18.7475,4.57804-8.40406,6.23377-12.28281,6.23377-23.27275-8.10384-10.98988-14.33761-.64644-20.57131-3.23231-27.4285-2.58588-6.85706-14.22219.62336-12.92931-21.19467,1.29294-21.81809-10.98987-37.40248-15.51512-49.24653-4.52525-11.84411-5.81819-7.48048-20.68687-5.61038-14.86869,1.87011-22.62625,20.57135-5.17169,34.90896,17.45456,14.33761,10.34344,37.40248,8.404,44.25954-1.93937,6.85713-14.22219,4.98699-21.97981,4.98699s-18.101,8.72726-23.91919,16.8311c-5.81819,8.10384-18.101,10.59734-34.26262,11.84411s-25.21213-9.97398-33.61619-8.1039c-8.40406,1.87014-1.93937,20.57138,10.34344,28.67522,12.28281,8.1039,58.18181,8.72726,73.0505,2.49349s24.56569-28.67522,38.78787-32.41543,25.21213-7.48048,36.202,8.10384c10.98987,15.58433,10.98987,38.6492,10.98987,54.23352s1.93937,13.71425,9.0505,13.71425c5.04244,0,16.25731-11.58481,26.50506-16.11051l.00013-56.41531Z"/>
  <path id="blacks" class="cls-1" d="M135.9798-9.1913c1.445,2.2713,3.07706,4.63626,4.9495,7.11889,15.51514,20.57134,32.32323,29.29642,27.79798,46.12752-4.52527,16.8311-40.08081,21.19537-70.46466,24.31224-30.38384,3.11687-69.17172,19.94965-68.52525-.62169.64647-20.57134,23.91919-46.75303,2.58586-62.33738C10.9899-10.17608,9.69697,25.97874,5.17172,35.95272c-1.58772,3.49838-3.25818,7.53362-5.17172,11.59303v100.07205c26.26198-10.0413,37.50788-8.40532,27.15152,10.5178-12.28283,22.44147-27.79798,52.36121-9.69697,42.38718,18.10101-9.97396,36.20202-47.99972,50.42424-60.4672,14.22223-12.46747,49.77777-14.96001,56.88889-26.8041,7.11112-11.84411,9.05051-7.48182,5.81818,13.7129-3.23232,21.19472,21.33333,28.67724,26.50505,12.46952,5.17172-16.20773,36.84848-23.68922,53.65656-37.40345,16.80808-13.71423,29.73738-12.46728,12.9293,7.48069-16.80808,19.94796-3.8788,36.78022,10.98989,43.01396s20.68687-10.5982,38.78791-31.79292c18.101-21.19472,19.39394-20.57466,12.92928,3.11356-6.46466,23.6882,10.98991,33.04252,27.79797,11.8478,16.80809-21.1947,19.39394-8.10559,25.21213-1.24847,5.81819,6.85711,12.28281,8.10201,20.04041-4.98882,7.75759-13.09086,22.62625,4.3656,22.62625,10.59934s-18.101,39.89741-3.87878,54.23497c14.22222,14.33761,34.90909,14.95926,27.79797-1.24847-7.11109-16.20771,16.80809-10.59887,14.22222-56.10517-2.58587-45.50629,21.97978-34.90464,40.72725-29.91765,18.74747,4.98699,23.91919,17.45325,49.77778,17.45325s47.83834-5.60998,38.14141,14.96138c-9.69694,20.57136-1.93937,39.89531,7.75756,39.89531s30.38381-26.18119,31.67675-43.63567c1.29294-17.45446-1.29294-51.1196,16.80812-46.13261,18.101,4.98699,53.65656,21.19542,74.98987,26.18242,21.33331,4.98699,65.93937,19.32392,89.85856,38.02513,23.91919,18.70124,61.41412,59.22005,85.33331,45.50583,23.91919-13.71424,0-33.03697-38.14144-57.34856-38.14144-24.31157-58.82831-33.65978-79.51519-36.77665,29.73738-2.49349,40.08081,7.47728,61.41412,6.8539,21.33331-.62337,65.93937-9.97276,80.80806-17.45324,14.86869-7.48049,36.202-13.71458,55.59594-13.09121s60.12119,6.85829,55.596-19.32342c-4.52525-26.18171-26.50506-6.859-46.5455-6.859s-45.899-14.33836-13.57575-28.05258c25.02519-10.61771,41.78119-24.56787,48.1315-36.41488h-58.399c-28.99512,22.46899-41.77275,52.13494-95.7525,49.50606-64-3.11687-128,4.98903-143.51512,12.46951-15.51512,7.48049-18.7475,6.23349-18.7475-9.35086s8.40406-28.67428,21.97981-28.67428c6.87475,0,12.10931-12.45059,18.85863-23.95044h-40.86869c-5.43806,9.62679-12.73156,20.62624-53.62625,35.79316-50.42425,18.70122-117.01009,43.63398-135.11113,44.25735-18.101.62337-31.67675-12.46616-80.80806-13.7129-49.13131-1.24675-84.04041,8.72917-98.90906,8.72917s-70.46466-18.70039-84.68687-32.41462c-7.62484-7.35241-20.36264-25.08215-30.7223-42.65216h-42.75253ZM1024,322.94011c-16.79513.32915-31.67675,5.09041-31.67675,15.34867,0,10.06873,14.76006,16.06772,31.67675,18.66094v-34.00961ZM147.46464,579.89772c-9.43181-.46873-18.17172,2.98739-24.63637,9.61075-10.34344,10.59734-33.61616,9.34936-42.66666,15.58306-9.05051,6.23377-15.51515,31.79144-25.85859,39.89528-10.34344,8.1039-3.87879,26.80742,20.68687,23.69056,24.56566-3.11692,33.61616-14.33799,47.83838-13.09121,14.22223,1.24672,30.38384-16.83312,45.25252-12.46955,14.86869,4.36363,7.11111,9.35276-5.81819,16.20989s-20.68688,23.06374-2.58586,23.06374,40.08081-7.47752,45.899-16.20478,42.66666-4.36521,65.29294,4.36205c22.62625,8.7272,61.41412,33.04005,38.14141,46.7543-23.27272,13.71425-52.36362,24.30913-57.53536,36.77666-5.17172,12.46747-22.62627,19.32536-32.96969,28.05262-10.34344,8.7272-7.75758,24.30913-21.9798,34.90646s-26.50505,35.53525-26.50505,46.13258,21.9798,14.9616,20.68688,22.44208-13.57577-.62298-13.57577,14.96135c-15.51516.62336-26.50505-11.22296-36.84848-19.95016-10.34344-8.72726-29.09091,6.23244-21.33334,15.58306,7.75758,9.35056,8.40404,16.21153-1.9394,15.58817s-25.21213,16.83028-10.9899,32.41461c14.22222,15.58433,26.50505,34.28191,29.73737,54.22986,1.50497,9.28333,4.42048,17.88075,8.13636,25.56076h186.87373c-2.13334-13.60698,1.79703-34.72075,9.27272-48.6245,9.05053-16.8311-2.58584-24.31102-1.29294-41.76548,1.29294-17.45446,20.68687-26.803,6.46466-49.86787s-36.20203-41.14591-52.36366-57.35365c-16.16159-16.20775-10.98991-47.37488,12.28284-68.56962,23.27272-21.19474,50.42425-23.68829,48.48484-66.07776-1.93941-42.38941-3.87878-52.98517-34.26263-66.69942s-50.42425-12.46987-56.88888-25.5607c-6.46466-13.09083-36.20203-13.7111-49.13131-8.72411-12.9293,4.98699-32.9697,3.11673-48.48486-5.61054-5.81819-3.27274-11.72475-4.9675-17.38384-5.24869l.00003.00019ZM1024,778.30417c-4.9985,2.73786-7.75756,8.62151-7.75756,18.16667,0,13.09089-13.57575,24.93104-11.63638,43.00886,1.93938,18.07782,12.92931,36.78221,12.28281,53.61332-.6465,16.8311-9.0505,41.7651-12.92931,26.80414-3.87881-14.96097-16.16163,1.86843-28.44444.62172-12.28281-1.24678-24.56569-23.06178-30.38381-12.46445-5.81819,10.59734,14.86869,24.3073,27.798,29.91765,12.92931,5.61035-1.93937,6.8575-1.93937,13.09121s15.51519,26.18393-8.404,18.08003c-23.91919-8.10384-32.32325,8.10283-6.46463,24.93394,20.2085,13.15313,15.93906,21.7416,5.39394,29.92275h62.48475v-245.69583ZM603.79294,924.88591c-18.101,0-24.56569,14.33288-47.83838,14.95624s-53.65656,3.74071-74.34344,16.83155c-20.68688,13.09083-39.43434,16.21021-52.36362,29.3011-10.70287,10.83672-15.19428,25.51025-17.89397,38.02515h47.88891c2.36091-13.64936,9.28669-22.61991,15.26263-23.06374,8.40403-.62336,14.86869-18.70175,39.43434-18.70175s32.32322-10.59935,52.36366-10.59935c-.6465,9.35056-7.11112,21.19701-21.33331,21.82036s-34.90909,3.11376-36.84847,10.59425c-1.54634,5.96443-16.63006,11.15063-24.65656,19.95023h90.33334c12.86206-10.64974,22.10794-22.27945,21.59594-31.17124-.6465-11.22076,15.51013-31.16638,26.5-40.517,10.98994-9.35056,0-27.42579-18.101-27.42579h-.00006Z"/>
</svg>