<?xml version="1.0" encoding="UTF-8"?>
<svg id="Layer_1" data-name="Layer 1" xmlns="http://www.w3.org/2000/svg" width="1024" height="1024" viewBox="0 0 1024 1024">
  <defs>
    <style>
      .cls-1 {
        opacity: .95;
      }

      .cls-1, .cls-2 {
        fill: #fff;
      }

      .cls-3 {
        opacity: .79;
      }
    </style>
  </defs>
  <ellipse class="cls-3" cx="512" cy="512" rx="288.97037" ry="279.20678"/>
  <ellipse class="cls-1" cx="512" cy="744.67232" rx="28.89704" ry="27.92068"/>
  <ellipse class="cls-1" cx="752.80864" cy="512" rx="28.89704" ry="27.92068"/>
  <ellipse class="cls-1" cx="271.19136" cy="512" rx="28.89704" ry="27.92068"/>
  <ellipse class="cls-1" cx="512" cy="279.32768" rx="28.89704" ry="27.92068"/>
  <g id="CoQm6i.tif">
    <path class="cls-2" d="M684.09548,329.92178c4.0456,1.86138,9.10258,2.04752,11.79962,6.04948,6.83897,10.19105,3.75661,20.00982-1.10771,30.75928-36.50658,64.12449-64.87385,135.08954-101.66942,198.70215-9.48787,16.42667-16.13418,19.96328-32.94262,28.47908-65.98156,33.45829-134.66019,62.30963-200.68992,95.76792-13.48528,6.93365-30.05291,6.88712-35.3507-9.07422v-10.14451l3.13051-8.23661,107.64146-209.40508c6.26102-8.2366,12.42573-12.93658,21.62461-17.86923,66.89663-35.83153,140.34327-64.35715,207.72153-99.86295l15.31542-5.16533h4.52721ZM542.49999,481.25185c-46.13894-35.18006-97.23852,20.05636-64.34407,59.37798,16.27866,19.4514,49.55841,19.12567,66.84847.69802,14.11138-15.07716,15.07461-34.24937,5.05698-51.0483-3.27499-5.5376-2.35992-5.07225-7.5614-9.02768h.00001Z"/>
  </g>
</svg>