<?xml version="1.0" encoding="UTF-8"?>
<svg id="Layer_1" data-name="Layer 1" xmlns="http://www.w3.org/2000/svg" width="1024" height="1024" viewBox="0 0 1024 1024">
  <defs>
    <style>
      .cls-1 {
        fill: #1d1c1f;
      }

      .cls-2 {
        opacity: .79;
      }

      .cls-2, .cls-3 {
        isolation: isolate;
      }

      .cls-4 {
        fill: #4e3b2d;
      }

      .cls-5, .cls-3 {
        fill: #fff;
      }

      .cls-6 {
        fill: #83795d;
      }

      .cls-7 {
        fill: #4c5a41;
      }

      .cls-3 {
        opacity: .95;
      }
    </style>
  </defs>
  <g>
    <path id="greens" class="cls-7" d="M0,0v1023.99994h1024V0H0Z"/>
    <path id="browns" class="cls-4" d="M681.29294,0l-59.39394,54.0101-150.62625,43.86363-234.02022-16.68181L0,112.40909v164.62624l260.52527,46.96465L0,358.91413v120.73231l88.56566,1.90403c20.68688,25.3285,32.9697,34.5925,47.19192,32.12119,14.22222-2.47131,37.49495,19.77106,56.24242,20.38887s42.66666-15.44269,68.52525-12.3535c25.85859,3.08912,42.02019,13.59087,73.0505,13.59087s69.81819-11.73931,92.44444-20.38891c22.62625-8.64959,63.35353-14.82669,63.35353-19.1515s-14.22222-11.73759-38.78787-19.15153c-24.56566-7.41394-44.60606-35.2195-28.44444-58.69697,16.16159-23.47747,29.09091-38.92225,76.28281-28.41919,47.19191,10.50309,101.49497,3.09081,115.07072-.61616s51.71719-9.27106,76.92931-8.03537c25.21213,1.23562,31.67675-9.88237,17.45456-17.91416-14.22225-8.03175,12.28281-12.973,26.50506-9.88384,14.22219,3.08916,62.70706,15.44444,73.697,15.44444s77.57575-8.64975,109.2525-5.56059c26.11719,2.54794,75.06231,18.93975,106.66662,23.92931V0h-342.70706ZM775.04544,467.58078c-28.04419.41387-69.26769,9.87191-70.399,28.7929-1.29294,21.624,61.41413,35.21597,51.71719,52.51515-9.697,17.29919-20.68687-13.59081-39.43438-9.88381-18.7475,3.707-47.19194,1.85137-60.76769-16.06566-13.57575-17.91703-56.24244-9.26575-65.29294-.61616-9.0505,8.64962-12.28281,38.92462,19.39394,53.7525,31.67675,14.82787,90.50506,5.56131,108.60606,31.51012,18.101,25.94881,40.72725,40.77331,87.91919,61.16162,47.19194,20.38837,86.62625,19.77131,92.44444,31.51006,5.81819,11.73875,46.5455,27.18687,62.70706,27.18687,10.45206,0,37.663-.50712,62.06063,5.64644v-213.04036c-13.39219-.97369-22.24875-6.454-34.90906-16.26262-23.91919-18.53487-45.899-27.80303-82.7475-27.80303s-93.73738-5.55897-120.24244-8.03031c-3.31312-.30891-7.04919-.43287-11.05556-.37372h.00006ZM968.24237,778.8787c-7.59594-.61781-14.70706.15075-19.23231,2.31312-9.0505,4.32481-27.1515.62125-35.55556.62125s-20.68687,24.09269-6.46463,27.18181,2.58588,24.71344-10.98987,12.97475c-13.57575-11.73875-23.27275-6.18-28.44444-1.23737s-20.68687-1.23219-26.50506,4.32831c-5.81819,5.56044-24.56569,3.70587-21.33331,22.85856,3.23231,19.15269,8.404,32.74425,53.01006,37.68687s80.16163-8.64837,91.1515-17.298c8.11962-6.39081,34.93494-7.70594,60.12119,6.23231v-86.80806c-15.5565,2.60231-25.15781,1.61256-33.61619-2.83331-6.46463-3.39806-14.54544-5.40237-22.14144-6.02019l.00006-.00006Z"/>
    <path id="tans" class="cls-6" d="M0,254.08184c39.68776-7.24095,73.54441,12.46039,91.79798,12.46039,20.68687,0,69.81818-9.88525,83.39393-9.88525s52.36362,19.7705,75.63638,19.7705,44.60606,6.17828,102.14141,7.41394c57.53538,1.23569,90.50506-14.82787,108.60606-22.24181,18.101-7.41394,68.52525-18.53484,86.62625-35.83406,18.101-17.29919,87.91919-53.75106,95.03031-38.30534,7.11112,15.4457-32.32325,36.45186-51.71719,53.75106-19.39394,17.29919-32.96969,19.15267-62.70706,20.38833-29.73738,1.23567-80.80806,21.62401-76.28281,40.15883,4.52525,18.53487,36.84847,5.56047,69.81819,4.94266,32.96969-.61781,33.61619-13.59222,40.08081-10.50309,6.46463,3.08916,0,16.68137-18.101,29.65575-18.101,12.97444-85.33334,12.35659-103.43434,6.17831-18.10103-6.17831-79.51516-1.8535-98.26263-8.64959s-53.01009,16.68137-53.01009,25.33097,40.72728,40.15884,74.98991,39.54103c34.26263-.61784,7.11113,21.00615-31.67675,17.29919-38.78794-3.70697-47.19197-22.85965-67.23237-24.09531-20.04041-1.23566-49.77778-15.44569-73.69697-17.29922-23.91919-1.85347-69.17172,3.08916-87.9192,10.50309-17.08735,6.75659-54.09616,9.92481-104.0808,13.23637v-133.81673ZM1002.02019,227.61902c-1.29294-12.35659-10.98988-18.53487-25.21213-33.98056-14.22219-15.44573-29.73738-25.33097-44.60606-11.12092-14.86869,14.21006-14.22225,29.03795-13.57575,46.33712.6465,17.29923-1.29294,32.12709-15.51512,43.86586-14.22219,11.73872-18.101,26.56662-10.34344,32.12706,7.75756,5.56047-5.81819,16.68141-1.93937,19.15272s10.34344-6.17828,23.27269-6.17828,26.50506-6.17828,43.31312-5.56047c16.80806.61784,37.49494,6.17828,44.60606,6.17828,4.72175,0,13.43869-4.07766,21.97981-6.27959v-51.35636c-14.03088-8.30858-20.97131-23.54915-21.97981-33.18481v-.00005ZM734.3735,1023.99994c20.224-7.147,23.61663-16.58994,2.59619-27.80225-27.798-14.82794-69.17169-7.41394-71.75756-14.82794-2.58588-7.41394-22.61331,6.53912-49.77781-37.6875-17.45456-28.42012,16.80806-59.31156,35.55556-71.05031,18.7475-11.73875,48.48488-49.42631,60.12119-74.13943,11.63638-24.71312,27.1515-71.66812,49.77781-90.82081,22.62625-19.15269,32.32325-44.48362-20.04044-45.1015-52.36362-.61781-88.56569,16.68137-109.899,46.955-21.33331,30.27362-27.1515,65.48981-51.71719,75.37506-24.56569,9.88525-59.47475,11.12094-80.16163-9.26744-20.68688-20.38831-24.56566-60.54718-38.14141-96.38124-13.57575-35.83406-60.12122-50.04406-124.76769-25.94875l-5.81816,71.05025-47.19194,33.36275-86.62628,103.79518c-22.62627-4.94262-41.37373-17.29919-49.13131-17.29919s-12.28283,8.64962-36.84848,5.56044c-24.56566-3.08912-52.36364-1.85344-53.65657,19.15269-1.13509,18.441-21.7056,35.92556-56.88879,43.68543v77.07537c9.64267-8.04412,17.41576-2.35762,24.09762,34.31419h155.61438l65.94456-130.97962,53.42644,130.97962h135.69034l9.99434-29.03794,60.12122-32.74487,85.33334-5.56044-30.34506,67.34325h174.49631ZM82.74748,498.22788c35.55555,1.8535,45.89899-6.79609,79.51515-4.32478,33.61616,2.47131,69.81819-2.47131,79.51516-12.97441,9.69695-10.50306-5.81819-29.03794-35.55558-29.03794s-48.48484-15.44572-78.86868-11.73875-48.48485,17.29919-58.18182,17.29919-21.33334-6.17825-30.38384-.61781c-6.8913,4.23337-23.146,7.36453-38.78786,1.54456v64.71137c23.37616-10.21394,54.1065-26.35406,82.74748-24.86144ZM14.22222,662.57027c.40857-8.20969-5.91903-19.38006-14.22222-27.266v30.70362c11.55879,9.6455,13.51111,10.84412,14.22222-3.43762ZM1024,621.58109c-8.23337-2.27856-12.86463.21-18.7475,4.53731-8.40406,6.17831-12.28281,6.17831-23.27275-8.03175-10.98988-14.21006-.64644-20.38831-3.23231-27.1845-2.58588-6.79606-14.22219.61781-12.92931-21.00612,1.29294-21.624-10.98987-37.06975-15.51512-48.80843-4.52525-11.73875-5.81819-7.41394-20.68687-5.56047s-22.62625,20.38834-5.17169,34.5984,10.34344,37.06975,8.404,43.86581c-1.93937,6.79612-14.22219,4.94262-21.97981,4.94262s-18.101,8.64962-23.91919,16.68137c-5.81819,8.03175-18.101,10.50306-34.26262,11.73875s-25.21213-9.88525-33.61619-8.03181c-8.40406,1.8535-1.93937,20.38837,10.34344,28.42012,12.28281,8.03181,58.18181,8.64962,73.0505,2.47131s24.56569-28.42012,38.78787-32.12706,25.21213-7.41394,36.202,8.03175c10.98987,15.44569,10.98987,38.30537,10.98987,53.75106s1.93937,13.59225,9.0505,13.59225c5.04244,0,16.25731-11.48175,26.50506-15.96719l.00013-55.91343Z"/>
    <path id="blacks" class="cls-1" d="M135.9798,0c1.445,2.25109,3.07706,4.59502,4.9495,7.05556,15.51514,20.38834,32.32323,29.0358,27.79798,45.71717-4.52527,16.68137-40.08081,21.00682-70.46466,24.09596-30.38384,3.08914-69.17172,19.77218-68.52525-.61616.64647-20.38834,23.91919-46.33711,2.58586-61.78282C10.9899-.97602,9.69697,34.85717,5.17172,44.74242c-1.58772,3.46725-3.25818,7.4666-5.17172,11.4899v99.18181c26.26198-9.95197,37.50788-8.33055,27.15152,10.42423-12.28283,22.24183-27.79798,51.8954-9.69697,42.01011,18.10101-9.88523,36.20202-47.57272,50.42424-59.92928,14.22223-12.35656,49.77777-14.82692,56.88889-26.56565,7.11112-11.73874,9.05051-7.41527,5.81818,13.59091-3.23232,21.00617,21.33333,28.42212,26.50505,12.35859,5.17172-16.06355,36.84848-23.47848,53.65656-37.07071s29.73738-12.35637,12.9293,7.41414c-16.80808,19.77051-3.8788,36.45302,10.98989,42.6313s20.68687-10.50392,38.78791-31.51009c18.101-21.00617,19.39394-20.39162,12.92928,3.08586-6.46466,23.47747,10.98991,32.74858,27.79797,11.74241,16.80809-21.00615,19.39394-8.03348,25.21213-1.23736,5.81819,6.79611,12.28281,8.02994,20.04041-4.94444,7.75759-12.97441,22.62625,4.32677,22.62625,10.50505s-18.101,39.54248-3.87878,53.7525c14.22222,14.21006,34.90909,14.82619,27.79797-1.23736-7.11109-16.06353,16.80809-10.50458,14.22222-55.60606-2.58587-45.10147,21.97978-34.59413,40.72725-29.6515,18.74747,4.94262,23.91919,17.29798,49.77778,17.29798s47.83834-5.56007,38.14141,14.82828c-9.69694,20.38836-1.93937,39.5404,7.75756,39.5404s30.38381-25.94828,31.67675-43.24748c1.29294-17.29919-1.29294-50.66484,16.80812-45.72222,18.101,4.94262,53.65656,21.00687,74.98987,25.9495,21.33331,4.94262,65.93937,19.15201,89.85856,37.68686,23.91919,18.53487,61.41412,58.69323,85.33331,45.10101,23.91919-13.59223,0-32.74308-38.14144-56.83839-38.14144-24.0953-58.82831-33.36034-79.51519-36.44948,29.73738-2.47131,40.08081,7.41076,61.41412,6.79293,21.33331-.61783,65.93937-9.88404,80.80806-17.29798,14.86869-7.41394,36.202-13.59258,55.59594-12.97475,19.39394.61783,60.12119,6.79728,55.596-19.15151-4.52525-25.9488-26.50506-6.79798-46.5455-6.79798s-45.899-14.2108-13.57575-27.80303c25.02519-10.52326,41.78119-24.34931,48.1315-36.09093h-58.399c-28.99512,22.2691-41.77275,51.67115-95.7525,49.06565-64-3.08914-128,4.94464-143.51512,12.35859-15.51512,7.41394-18.7475,6.17804-18.7475-9.26768s8.40406-28.41919,21.97981-28.41919c6.87475,0,12.10931-12.33983,18.85863-23.73737h-40.86869c-5.43806,9.54115-12.73156,20.44275-53.62625,35.47474-50.42425,18.53485-117.01009,43.24581-135.11113,43.86363-18.101.61783-31.67675-12.35526-80.80806-13.59091-49.13131-1.23566-84.04041,8.65152-98.90906,8.65152s-70.46466-18.53403-84.68687-32.12626c-7.62484-7.287-20.36264-24.85902-30.7223-42.27272h-42.75253ZM1024,329.17676c-16.79513.32622-31.67675,5.04512-31.67675,15.21212,0,9.97916,14.76006,15.92478,31.67675,18.49494v-33.70706ZM147.46464,583.84846c-9.43181-.46456-18.17172,2.96081-24.63637,9.52525-10.34344,10.50306-33.61616,9.26619-42.66666,15.44444-9.05051,6.17831-15.51515,31.50862-25.85859,39.54037-10.34344,8.03181-3.87879,26.56894,20.68687,23.47981,24.56566-3.08919,33.61616-14.21044,47.83838-12.97475,14.22223,1.23562,30.38384-16.68337,45.25252-12.35862,14.86869,4.32481,7.11111,9.26956-5.81819,16.06569-12.9293,6.79612-20.68688,22.85856-2.58586,22.85856s40.08081-7.411,45.899-16.06062,42.66666-4.32637,65.29294,4.32325c22.62625,8.64956,61.41412,32.74612,38.14141,46.33837-23.27272,13.59225-52.36362,24.09287-57.53536,36.4495-5.17172,12.35656-22.62627,19.15344-32.96969,27.80306-10.34344,8.64956-7.75758,24.09287-21.9798,34.59594-14.22222,10.50306-26.50505,35.21912-26.50505,45.72218s21.9798,14.8285,20.68688,22.24244-13.57577-.61744-13.57577,14.82825c-15.51516.61781-26.50505-11.12312-36.84848-19.77269-10.34344-8.64962-29.09091,6.177-21.33334,15.44444,7.75758,9.26737,8.40404,16.06731-1.9394,15.4495-10.34344-.61781-25.21213,16.68056-10.9899,32.12625,14.22222,15.44569,26.50505,33.97694,29.73737,53.74743,1.50497,9.20075,4.42048,17.72169,8.13636,25.33337h186.87373c-2.13334-13.48594,1.79703-34.41187,9.27272-48.19193,9.05053-16.68137-2.58584-24.09475-1.29294-41.39393,1.29294-17.29919,20.68687-26.56456,6.46466-49.42425-14.22222-22.85969-36.20203-40.77987-52.36366-56.84343-16.16159-16.06356-10.98991-46.95343,12.28284-67.95962,23.27272-21.00619,50.42425-23.47756,48.48484-65.48993-1.93941-42.01231-3.87878-52.51381-34.26263-66.10606s-50.42425-12.35894-56.88888-25.33331c-6.46466-12.97437-36.20203-13.58912-49.13131-8.6465-12.9293,4.94262-32.9697,3.089-48.48486-5.56062-5.81819-3.24362-11.72475-4.92331-17.38384-5.202l.00003.00019ZM1024,780.48989c-4.9985,2.7135-7.75756,8.54481-7.75756,18.00506,0,12.97444-13.57575,24.70925-11.63638,42.62625,1.93938,17.917,12.92931,36.455,12.28281,53.13637-.6465,16.68137-9.0505,41.39356-12.92931,26.56569-3.87881-14.82787-16.16163,1.85181-28.44444.61619-12.28281-1.23569-24.56569-22.85662-30.38381-12.35356-5.81819,10.50306,14.86869,24.09106,27.798,29.6515,12.92931,5.56044-1.93937,6.7965-1.93937,12.97475s15.51519,25.951-8.404,17.91919c-23.91919-8.03175-32.32325,8.03075-6.46463,24.71212,20.2085,13.03612,15.93906,21.54819,5.39394,29.65656h62.48475v-243.51011ZM603.79294,925.76763c-18.101,0-24.56569,14.20537-47.83838,14.82319-23.27269.61781-53.65656,3.70744-74.34344,16.68181-20.68688,12.97437-39.43434,16.066-52.36362,29.04044-10.70287,10.74031-15.19428,25.28331-17.89397,37.68687h47.88891c2.36091-13.52794,9.28669-22.41869,15.26263-22.85856,8.40403-.61781,14.86869-18.53537,39.43434-18.53537s32.32322-10.50506,52.36366-10.50506c-.6465,9.26737-7.11112,21.00844-21.33331,21.62625-14.22219.61781-34.90909,3.08606-36.84847,10.5-1.54634,5.91137-16.63006,11.05144-24.65656,19.77275h90.33334c12.86206-10.555,22.10794-22.08125,21.59594-30.89394-.6465-11.12094,15.51013-30.88912,26.5-40.15656,10.98994-9.26737,0-27.18181-18.101-27.18181h-.00006Z"/>
  </g>
  <circle class="cls-2" cx="512" cy="512" r="300"/>
  <circle class="cls-3" cx="512" cy="762" r="30"/>
  <circle class="cls-3" cx="762" cy="512" r="30"/>
  <circle class="cls-3" cx="262" cy="512" r="30"/>
  <circle class="cls-3" cx="512" cy="262" r="30"/>
  <g id="CoQm6i.tif">
    <path class="cls-5" d="M690.66412,316.36197c4.20001,2,9.45001,2.20001,12.25,6.5,7.10004,10.95001,3.89996,21.5-1.14996,33.04999-37.89996,68.89999-67.34998,145.14999-105.54999,213.50003-9.85004,17.65002-16.75,21.45001-34.20001,30.59998-68.5,35.95001-139.79999,66.94995-208.35001,102.89996-14,7.45001-31.20001,7.40002-36.70001-9.75v-10.89996l3.25-8.85004,111.75-225c6.5-8.85001,12.89999-13.89999,22.45001-19.20001,69.44998-38.5,145.69998-69.14999,215.64999-107.29999l15.89996-5.54999h4.70001v.00003ZM543.66412,478.96198c-47.90002-37.79999-100.94998,21.54999-66.79999,63.79999,16.89999,20.89996,51.45001,20.54999,69.39996.75,14.64996-16.20001,15.64996-36.79999,5.25-54.84998-3.39996-5.95001-2.45001-5.45001-7.85004-9.70001v-.00003l.00006.00003Z"/>
  </g>
</svg>