<?xml version="1.0" encoding="UTF-8"?>
<svg id="Layer_1" data-name="Layer 1" xmlns="http://www.w3.org/2000/svg" width="1024" height="1024" viewBox="0 0 1024 1024">
  <defs>
    <style>
      .cls-1 {
        isolation: isolate;
        opacity: .79;
      }
    </style>
  </defs>
  <path class="cls-1" d="M542.5,481.25183c-46.13892-35.18005-97.23853,20.0564-64.34406,59.37799,16.27869,19.45142,49.55841,19.12567,66.84845.698,14.11139-15.07715,15.07458-34.24939,5.05701-51.04834-3.27496-5.5376-2.35992-5.0722-7.5614-9.02765Z"/>
  <path class="cls-1" d="M512,232.79321c-159.59393,0-288.97034,125.00513-288.97034,279.20679s129.3764,279.20679,288.97034,279.20679,288.97034-125.00513,288.97034-279.20679-129.3764-279.20679-288.97034-279.20679ZM271.19135,539.92065c-15.95941,0-28.89703-12.50049-28.89703-27.92065s12.93762-27.92072,28.89703-27.92072,28.89703,12.50055,28.89703,27.92072-12.93762,27.92065-28.89703,27.92065ZM512,251.40698c15.95941,0,28.89703,12.50049,28.89703,27.92065s-12.93762,27.92072-28.89703,27.92072-28.89703-12.50055-28.89703-27.92072,12.93768-27.92065,28.89703-27.92065ZM512,772.59296c-15.95935,0-28.89703-12.50049-28.89703-27.92065s12.93768-27.92065,28.89703-27.92065,28.89703,12.50049,28.89703,27.92065-12.93762,27.92065-28.89703,27.92065ZM694.78735,366.73053c-36.50659,64.12445-64.87384,135.08954-101.66943,198.70215-9.48785,16.4267-16.13416,19.96326-32.94263,28.47906-65.98157,33.45831-134.66016,62.30963-200.68994,95.76794-13.48529,6.93365-30.05292,6.88715-35.35071-9.07422v-10.14453l3.13055-8.23663,107.64142-209.40509c6.26105-8.23663,12.42572-12.93658,21.62463-17.86926,66.89661-35.83154,140.34326-64.35712,207.7215-99.86292l15.31543-5.16534h4.52722l.00006.00006c4.04559,1.86139,9.1026,2.04755,11.79962,6.0495,6.83899,10.19104,3.75659,20.00983-1.10773,30.75928ZM752.80865,539.92065c-15.95941,0-28.89703-12.50049-28.89703-27.92065s12.93762-27.92072,28.89703-27.92072,28.89703,12.50055,28.89703,27.92072-12.93762,27.92065-28.89703,27.92065Z"/>
</svg>